<?xml version="1.0" encoding="UTF-8"?>
<svg id="_Слой_1" data-name="Слой 1" xmlns="http://www.w3.org/2000/svg" viewBox="0 0 16 16">
  <defs>
    <style>
      .cls-1 {
        fill: #f7f7f7;
      }
    </style>
  </defs>
  <path class="cls-1" d="M0,8C0,6.67,0,5.33,0,4c0-.52,0-1.04,.13-1.56C.46,1.08,1.57,.14,2.97,.05c.47-.03,.93-.05,1.4-.05,2.4,0,4.8,0,7.19,0,.54,0,1.09,.02,1.62,.07,1.46,.14,2.63,1.35,2.74,2.8,.03,.44,.05,.88,.05,1.32,0,2.63,0,5.25,0,7.88,0,.51,0,1.03-.14,1.53-.34,1.34-1.44,2.25-2.83,2.34-.45,.03-.9,.05-1.35,.05-2.5,0-5.01,0-7.51,0-.51,0-1.02-.02-1.52-.09-1.43-.23-2.46-1.37-2.58-2.8-.03-.39-.05-.78-.05-1.17,0-1.31,0-2.62,0-3.92Zm6.43-1.55v6.4h1.93c0-.06,0-.1,0-.15,0-1.05,0-2.1,0-3.15,0-.07,0-.13,0-.2,.05-.65,.45-1.1,1.09-1.2,.57-.09,1.09,.15,1.28,.62,.08,.18,.11,.39,.12,.59,.01,1.11,0,2.23,0,3.34,0,.05,0,.1,0,.15h1.94v-.14c0-1.32,0-2.64,0-3.96,0-.19-.03-.39-.08-.57-.13-.47-.32-.91-.7-1.24-1.03-.9-2.59-.75-3.49,.12-.09,.09-.18,.18-.28,.3v-.9h-1.81Zm-3.09,0v6.39h1.97s0-.07,0-.1c0-2.06,0-4.12,0-6.18,0-.11-.04-.12-.13-.12-.58,0-1.15,0-1.73,0-.04,0-.07,0-.12,0Zm.99-3.23c-.63,0-1.14,.5-1.14,1.13,0,.63,.51,1.14,1.14,1.14,.63,0,1.14-.5,1.14-1.14,0-.64-.5-1.14-1.14-1.14Z"/>
</svg>